<?xml version="1.0" encoding="utf-8"?><svg xmlns="http://www.w3.org/2000/svg" viewBox="0 0 400.333 88.167"><path d="M143.945 21.091h14.405l-.609 1.944c-3.021 0-4.768.708-4.478 4.559 0 0 1.568 20.474 1.649 26.889 1.432-2.775 13.555-26.603 13.555-26.603 1.495-3.028.083-4.845-3.471-4.845l.6-1.944h14.618l-.62 1.944c-3.824 0-4.982 1.337-4.625 5.689 0 0 1.45 18.539 1.651 25.881.447-.873 13.419-26.094 13.419-26.094 1.713-3.324.436-5.476-3.123-5.476l.6-1.944h13.212l-.598 1.944c-2.705 0-5.291 1.247-7.715 5.765l-17.162 32.517h-2.816L169.89 29.74l-16.224 31.578h-2.883l-2.824-33.008c-.324-3.659-1-5.273-4.619-5.273l.605-1.946zM74.218 1.55c4.624 17.801 11.045 33.838 18.62 47.716C103.43 13.068 114.235.041 128.968.041c4.084 0 5.845 2.147 5.845 4.224 0 1.341-1.207 3.352-3.956 3.352-3.218 0-4.29-1.809-7.911-1.809-8.663 0-19.4 14.479-28.391 46.225 11.196 19.106 24.855 32.952 38.53 32.952 8.247 0 10.392-5.028 10.392-7.843 0-1.475-.804-2.817-2.011-2.817-.737 0-1.14.336-2.146.336-.738 0-2.279-.468-2.279-2.279 0-1.698 1.516-2.548 3.352-2.548 3.219 0 5.698 3.017 5.698 7.241 0 5.297-5.63 10.927-14.615 10.927-27.018 0-49.812-37.009-62.08-74.483-6.57 24.603-21.186 64.025-50.482 64.025C6.511 77.544.142 70.571.142 62.393c0-6.37 4.223-9.722 8.514-9.722 4.493 0 7.107 2.346 7.107 5.162 0 1.744-1.408 2.616-2.748 2.616-3.352 0-2.95-4.425-5.833-4.425-1.542 0-3.888 1.408-3.888 6.101 0 4.894 3.218 12.401 16.358 12.401 19.646 0 37.348-22.86 46.533-60.067.603-2.55.938-3.957.938-6.035 0-3.955-2.518-4.11-7.465-4.11h-6.21c-8.48 0-12.342 1.996-12.342 6.378 0 2.011 1.34 3.9 3.419 3.9 1.005 0 1.139-.402 1.139-1.341 0-1.542 1.073-2.482 2.749-2.482 1.34 0 2.413.94 2.413 2.617 0 1.943-2.077 4.357-5.832 4.357-4.224 0-6.838-3.297-6.838-6.984 0-4.314 2.41-9.206 16.202-9.206h19.86zM267.487 62.172c14.86.327 22.988-14.546 23.267-27.332.167-7.574-4.196-14.488-13.007-14.681-13.809-.303-23.823 13.631-24.103 26.418-.194 8.833 4.841 15.398 13.843 15.595m-8.337-13.97c.236-10.698 8.241-25.942 18.469-25.718 5.168.112 7.822 3.942 7.681 10.358-.225 10.248-6.767 27.226-18.295 26.973-5.193-.113-7.996-5.198-7.855-11.613M303.859 39.998l5.291-16.828a60.915 60.915 0 0 1 5.216-.267c4.935 0 8.058 1.693 8.058 5.946 0 6.503-4.197 11.15-13.084 11.15h-5.481zm31.792-18.907l-.606 2.013c2.749 0 4.495.536 4.495 2.413 0 1.145-1.116 4.539-1.609 6.235l-6.926 22.726c-.937 3.042-2.056 4.827-4.56 4.827-1.737 0-2.978-.443-5.027-4.627l-6.236-12.871c3.023-.358 12.178-3.627 12.536-12.47.289-7.101-5.298-8.579-12-8.38-3.389.099-16.989.117-16.989.117l-.604 2.011c2.748 0 4.494.537 4.494 2.415 0 1.145-1.114 4.539-1.609 6.234l-6.61 21.27c-.939 3.15-1.673 6.301-6.633 6.301l-.674 2.012h15.753l.607-2.012c-2.748 0-4.494-.536-4.494-2.413 0-1.146 1.113-4.539 1.609-6.235l2.719-8.581h5.93l9.453 19.242 21.457.036.604-2.079c-2.748 0-4.694-.536-4.694-2.413 0-1.146 1.134-4.596 1.675-6.233l1.994-6.443 4.642-3.651c7.926 15.912 19.508 38.348 43.376 38.348 6.72 0 12.538-4.305 12.538-10.191 0-4.097-3.133-6.739-6.491-6.739-3.177 0-5.176 2.015-5.176 3.79 0 1.146.778 2.079 1.882 2.079 2.556 0 1.885-2.548 4.305-2.548 1.728 0 2.998 1.516 2.998 3.754 0 4.207-4.321 7.51-9.722 7.51-16.803 0-30.881-18.955-38.817-39.757l13.207-10.145c3.837-2.822 6.511-3.628 8.181-3.628l.606-1.914h-13.951l-.605 1.914c3.597 0 3.969 2.512 1.286 4.522 0 0-14.761 11.103-17.375 13.444l3.812-12.291c1.006-3.286 1.617-5.645 6.717-5.645l.602-1.944h-16.07z"/><path d="M206.827 60.913c0-5.192-4.445-9.334-11.351-9.334-10.867 0-18.066 8.896-18.066 18.173 0 9.289 6.452 17.712 18.809 17.712 19.604 0 31.066-18.932 37.753-29.467l29.943-46.367c3.59-5.511 7.991-7.9 12.228-7.9l.709-2.323h-20.197l-.674 2.323c5.149 0 7.632 2.846 4.48 7.943l-27.025 42.27-9.725-41.521c-1.774-6.742-.006-8.692 5.77-8.692l.712-2.323h-22.859l-.684 2.323c5.025 0 7.434 2.689 8.707 8.187 0 0 11.528 46.564 12.451 50.475-6.801 10.061-16.867 22.156-31.336 22.156-9.116 0-15.856-5.407-15.856-14.968 0-8.445 6.251-15.812 14.858-15.812 4.89 0 7.961 2.477 7.961 4.694 0 2.576-2.921 2.149-2.921 5.196 0 1.023.833 2.35 2.501 2.35 2.37 0 3.812-2.185 3.812-5.095M140.627 21.091h-27.15l-.605 2.013c2.748 0 4.494.536 4.494 2.413 0 1.145-1.133 4.597-1.676 6.235l-7.106 23.124c-1.002 2.912-2.379 4.39-5.863 4.39l-.675 2.051h34.527l6.302-12.201-1.744-.805c-4.34 7.262-10.775 10.955-23.937 10.955h-4.51l5.506-17.828h3.652c5.771 0 7.394 1.981 6.155 7.263h1.742l4.356-14.598h-1.742c-1.401 3.949-4.127 5.29-8.926 5.29h-4.555l4.958-16.389s3.221.03 4.763.03c8.745 0 10.994 5.698 11.933 8.848l1.744-.402-1.643-10.389z"/></svg>
